<svg id="uuid-2766ca28-4f9c-4b77-8c31-1122e80595dc" data-name="Layer_2" xmlns="http://www.w3.org/2000/svg" viewBox="0 0 1067.38 1080.61" class="w-8 h-8 mr-2"><defs><style>.uuid-1042b16a-c6e6-4919-bc58-e015e9efd5f7 {
          fill: #1262c9;
        }</style></defs><g id="uuid-9c47c474-1a02-4b23-b77c-578a6ef425f7" data-name="x30"><g id="uuid-f2cf74b9-3ea6-49e4-acbe-ee7c6df3893c" data-name="LWPOLYLINE"><g><path class="uuid-1042b16a-c6e6-4919-bc58-e015e9efd5f7" d="M1046.17,385.7c24.95,86.35,27.68,177.61,7.92,265.29-64.73,287.4-350.19,467.9-637.59,403.16l68.78-57.72c255.52,26.75,484.35-158.7,511.1-414.22,5.39-51.52,2.14-103.58-9.62-154.02l59.41-42.49Z"></path><path class="uuid-1042b16a-c6e6-4919-bc58-e015e9efd5f7" d="M986.76,428.19l-55.32,39.56c-24.55-147.85-129.08-269.88-271.41-316.84l60.42-43.2c134.32,58.87,233.02,177.64,266.31,320.48Z"></path><path class="uuid-1042b16a-c6e6-4919-bc58-e015e9efd5f7" d="M587.97,204.83c181.67,29.97,304.65,201.53,274.69,383.2-29.97,181.67-201.53,304.65-383.2,274.68h-58.38v66.14l-180.55,151.51c-7.35-3.94-14.61-8.03-21.79-12.26v-103.84C4.86,807.77-61.7,517.99,62.47,283.86,200.49,23.6,523.36-75.5,783.63,62.52l-63.18,45.19C485.13,4.58,210.78,111.73,107.65,347.04c-79.76,181.98-35.13,394.53,111.09,529.06V282.12c105.21-131.68,281.23-184.02,441.29-131.21l-74.79,53.48c.91.15,1.82.29,2.73.44ZM570.23,616.51c67.26-26.24,100.51-102.03,74.28-169.29-26.24-67.25-102.03-100.51-169.29-74.27-20.03,7.81-37.82,20.44-51.8,36.77v206.79h146.81Z"></path></g></g></g></svg>
